<svg version="1.2" baseProfile="tiny-ps" xmlns="http://www.w3.org/2000/svg" viewBox="0 0 16 16" width="16" height="16">
	<title>319-arrow-down2-svg</title>
	<style>
		tspan { white-space:pre }
		.shp0 { fill: #ffffff } 
	</style>
	<path id="Color Fill 1" class="shp0" d="M13.71 9.71L8.71 14.71C8.32 15.1 7.68 15.1 7.29 14.71L2.29 9.71C1.9 9.32 1.9 8.68 2.29 8.29C2.68 7.9 3.32 7.9 3.71 8.29L7 11.59L7 2C7 1.45 7.45 1 8 1C8.55 1 9 1.45 9 2L9 11.59L12.29 8.29C12.49 8.1 12.74 8 13 8C13.26 8 13.51 8.1 13.71 8.29C14.1 8.68 14.1 9.32 13.71 9.71L13.71 9.71Z" />
</svg>