<svg version="1.2" baseProfile="tiny-ps" xmlns="http://www.w3.org/2000/svg" viewBox="0 0 16 16" width="16" height="16">
	<title>product-landing-page-svg</title>
	<style>
		tspan { white-space:pre }
		.shp0 { fill: #ffffff } 
	</style>
	<path id="Layer" class="shp0" d="M14 6C13.45 6 13 6.45 13 7L13 11C13 11.55 13.45 12 14 12C14.55 12 15 11.55 15 11L15 7C15 6.45 14.55 6 14 6ZM2 6C1.45 6 1 6.45 1 7L1 11C1 11.55 1.45 12 2 12C2.55 12 3 11.55 3 11L3 7C3 6.45 2.55 6 2 6ZM3.5 11.5C3.5 12.33 4.17 13 5 13L5 13L5 15C5 15.55 5.45 16 6 16C6.55 16 7 15.55 7 15L7 13L9 13L9 15C9 15.55 9.45 16 10 16C10.55 16 11 15.55 11 15L11 13C11.83 13 12.5 12.33 12.5 11.5L12.5 6L3.5 6L3.5 11.5Z" />
	<path id="Layer" fill-rule="evenodd" class="shp0" d="M12.47 5L12.5 5L12.5 5.5L3.53 5.5L3.53 5C3.68 3.63 4.45 2.44 5.55 1.72L5.05 0.72C4.93 0.48 5.03 0.18 5.28 0.05C5.52 -0.07 5.82 0.03 5.95 0.28L6.45 1.28L6.58 1.23C7.03 1.08 7.5 1 8 1C8.5 1 8.97 1.08 9.42 1.23L9.55 1.28L10.05 0.28C10.18 0.03 10.48 -0.07 10.72 0.05C10.97 0.18 11.07 0.48 10.95 0.72L10.45 1.72C11.55 2.44 12.32 3.63 12.47 5ZM7 3.5C7 3.22 6.78 3 6.5 3L6.5 3C6.22 3 6 3.22 6 3.5C6 3.78 6.22 4 6.5 4C6.78 4 7 3.78 7 3.5ZM9.5 4C9.78 4 10 3.78 10 3.5C10 3.22 9.78 3 9.5 3C9.5 3 9.5 3 9.5 3C9.22 3 9 3.22 9 3.5C9 3.78 9.22 4 9.5 4L9.5 4Z" />
</svg>