<svg version="1.2" baseProfile="tiny-ps" xmlns="http://www.w3.org/2000/svg" viewBox="0 0 16 16" width="16" height="16">
	<title>survey-form-svg</title>
	<style>
		tspan { white-space:pre }
		.shp0 { fill: #ffffff } 
	</style>
	<path id="Layer" fill-rule="evenodd" class="shp0" d="M15 2.5L15 15.5C15 15.78 14.78 16 14.5 16L1.5 16C1.22 16 1 15.78 1 15.5L1 2.5C1 2.22 1.22 2 1.5 2L6 2C6 0.9 6.89 0 8 0C9.11 0 10 0.9 10 2L14.5 2C14.78 2 15 2.22 15 2.5ZM7 2C7 2.55 7.45 3 8 3C8.55 3 9 2.55 9 2C9 1.45 8.55 1 8 1C7.45 1 7 1.45 7 2ZM14 3L12 3L12 4.5C12 4.78 11.78 5 11.5 5L4.5 5C4.22 5 4 4.78 4 4.5L4 3L2 3L2 15L14 15L14 3Z" />
	<path id="Layer" class="shp0" d="M7 13.41L3.79 9.71L4.71 8.79L7 10.59L11.29 6.79L12.21 7.71L7 13.41Z" />
</svg>